<svg xmlns="http://www.w3.org/2000/svg" viewBox="0 0 400 175"><defs/><g stroke="null"><path fill="#324fff" d="M264 71v58a51 51 0 0029-29l-29-29z"/><path fill="#283198" d="M293 100c4 20 4 34 0 58l-29-29 29-29z"/><path fill="#0ff" d="M293 100v58l29-29a109 109 0 00-29-29z"/><path fill="#324fff" d="M322 13v58s-23-18-29-29l29-29z"/><path fill="#324fff" d="M293 42v58a62 62 0 0029-29l-29-29z"/><path fill="#00e8ff" d="M322 71a132 132 0 010 58l-29-29 29-29z"/><path fill="#283198" d="M322 71v58c12-5 23-14 29-29-4-12-13-22-29-29z"/><path fill="#283198" d="M351 42v58l-29-29 29-29z"/><path fill="#00e8ff" d="M351 100c4 20 3 39 0 58l-29-29 29-29z"/><path fill="#324fff" d="M351 100v58l29-29c-4-11-13-20-29-29z"/><path fill="#324fff" d="M380 71v58l-29-29 29-29z"/></g><g stroke="null"><path fill="#8080f2" d="M55 70l28-17a2 2 0 013 0l28 17 1 2v32l-1 2-28 17a2 2 0 01-3 0l-28-17-1-2V72l1-2"/><path fill="#4b32c3" d="M158 85l-34-59c-1-2-3-4-6-4H51c-3 0-5 2-6 4L11 84a7 7 0 000 7l34 59c1 2 3 3 6 3h67c3 0 5-1 6-3l34-59a7 7 0 000-6m-28 28l-1 2-43 25a2 2 0 01-3 0l-43-25-1-2V63a2 2 0 011-2l43-25a2 2 0 013 0l43 25 1 2v50z"/></g><path d="M192 81h12V69h12v12h13v13h-13v12h-12V94h-12V81z"/></svg>
