<svg width="400" height="175" xmlns="http://www.w3.org/2000/svg">
 <g id="Layer_1">
  <title>Layer 1</title>
  <g stroke="null" id="svg_16">
   <path stroke="null" id="svg_5" d="m263.7059,70.90218l0,58.14704a51.09671,51.09671 0 0 0 29.07352,-29.07352l-29.07352,-29.07352z" fill="#324fff"/>
   <path stroke="null" id="svg_6" d="m292.77943,99.97571c4.14298,19.84268 3.85224,34.16139 0,58.14704l-29.07352,-29.07352l29.07352,-29.07352z" fill="#283198"/>
   <path stroke="null" id="svg_7" d="m292.77943,99.97571l0,58.14704l29.07352,-29.07352a108.95302,108.95302 0 0 0 -29.07352,-29.07352z" fill="#0ff"/>
   <path stroke="null" id="svg_8" d="m321.85295,12.75514l0,58.14704s-23.04077,-17.66216 -29.07352,-29.07352l29.07352,-29.07352z" fill="#324fff"/>
   <path stroke="null" id="svg_9" d="m292.77943,41.82866l0,58.14704a61.63586,61.63586 0 0 0 29.07352,-29.07352l-29.07352,-29.07352z" fill="#324fff"/>
   <path stroke="null" id="svg_10" d="m321.85295,70.90218a132.28452,132.28452 0 0 1 0,58.14704l-29.07352,-29.07352l29.07352,-29.07352z" fill="#00e8ff"/>
   <path stroke="null" id="svg_11" d="m321.85295,70.90218l0,58.14704c12.35625,-5.45129 22.8954,-13.80992 29.07352,-29.07352c-4.28834,-12.35625 -13.15577,-22.45929 -29.07352,-29.07352z" fill="#283198"/>
   <path stroke="null" id="svg_12" d="m350.92647,41.82866l0,58.14704l-29.07352,-29.07352l29.07352,-29.07352z" fill="#283198"/>
   <path stroke="null" id="svg_13" d="m350.92647,99.97571c4.43371,19.62463 3.56151,38.95852 0,58.14704l-29.07352,-29.07352l29.07352,-29.07352z" fill="#00e8ff"/>
   <path stroke="null" id="svg_14" d="m350.92647,99.97571l0,58.14704l29.07352,-29.07352c-3.92493,-10.90257 -13.30114,-20.27878 -29.07352,-29.07352z" fill="#324fff"/>
   <path stroke="null" id="svg_15" d="m379.99999,70.90218l0,58.14704l-29.07352,-29.07352l29.07352,-29.07352z" fill="#324fff"/>
  </g>
  <g stroke="null" id="svg_22">
   <path stroke="null" id="svg_20" fill="#8080f2" d="m55.05662,69.6782l28.29836,-16.33878a2.28156,2.28156 0 0 1 2.28855,0l28.30069,16.33878c0.70775,0.40975 1.14544,1.16406 1.14544,1.98356l0,32.68222c0,0.81484 -0.43769,1.57381 -1.14544,1.98356l-28.30302,16.3155a2.28156,2.28156 0 0 1 -2.28855,0l-28.29603,-16.29688c-0.70775,-0.40975 -1.14544,-1.16406 -1.14544,-1.98356l0,-32.69852c0,-0.81484 0.43769,-1.57381 1.14544,-1.98356"/>
   <path stroke="null" id="svg_21" fill="#4b32c3" d="m158.07848,84.56423l-33.81369,-58.82241c-1.22692,-2.12791 -3.49219,-3.67378 -5.95069,-3.67378l-67.62505,0c-2.45617,0 -4.72609,1.56916 -5.95302,3.69473l-33.81369,58.69902a6.98438,6.98438 0 0 0 0,6.93781l33.81369,58.31954c1.22925,2.12791 3.49684,3.21281 5.95302,3.21281l67.62505,0c2.45617,0 4.72609,-1.05464 5.95302,-3.18255l33.81136,-58.43594a6.63516,6.63516 0 0 0 0,-6.74691m-27.99803,28.28672c0,0.86141 -0.5215,1.66461 -1.27116,2.09531l-43.07032,24.84808a2.44453,2.44453 0 0 1 -2.43755,0l-43.10058,-24.84808c-0.74966,-0.43303 -1.27348,-1.23391 -1.27348,-2.09531l0,-49.70082a2.46781,2.46781 0 0 1 1.2665,-2.09531l43.07032,-24.84808a2.44453,2.44453 0 0 1 2.43522,0l43.10524,24.84575c0.74966,0.43303 1.28047,1.23391 1.28047,2.09531l-0.00466,49.70315z"/>
  </g>
  <path id="svg_23" d="m191.50001,81.22813l12.22813,0l0,-12.22813l12.54374,0l0,12.22813l12.22813,0l0,12.54374l-12.22813,0l0,12.22813l-12.54374,0l0,-12.22813l-12.22813,0l0,-12.54374z" fill="#000000"/>
 </g>

</svg>